<svg xmlns="http://www.w3.org/2000/svg" viewBox="0 0 1296 1174" width="1296" height="1174" font-family="Comic Sans MS, Chalkboard, cursive"><defs><marker id="arrow" viewBox="0 0 10 10" refX="9" refY="5" markerWidth="7" markerHeight="7" orient="auto-start-reverse"><path d="M0 0L10 5L0 10z" fill="#E8EFE6"/></marker><filter id="shadow" x="-30%" y="-30%" width="180%" height="200%"><feDropShadow dx="0" dy="3" stdDeviation="4" flood-opacity="0.28"/></filter><filter id="glow" x="-60%" y="-60%" width="240%" height="240%"><feGaussianBlur stdDeviation="5" result="b"/><feMerge><feMergeNode in="b"/><feMergeNode in="b"/><feMergeNode in="SourceGraphic"/></feMerge></filter><filter id="sketch"><feTurbulence type="fractalNoise" baseFrequency="0.035" numOctaves="3" seed="7" result="n"/><feDisplacementMap in="SourceGraphic" in2="n" scale="3.2" xChannelSelector="R" yChannelSelector="G"/></filter><filter id="soft"><feGaussianBlur stdDeviation="1.6"/></filter><filter id="grain"><feTurbulence type="fractalNoise" baseFrequency="0.9" numOctaves="4" result="n"/><feColorMatrix in="n" type="saturate" values="0"/><feBlend in="SourceGraphic" mode="multiply"/></filter></defs><rect width="1296" height="1174" fill="#1E2B22"/><rect width="1296" height="1174" filter="url(#grain)" fill="#B9C6B6" opacity="0.10"/><rect x="56" y="104" width="1184" height="4" fill="#F3D27A"/><text x="56" y="90" font-size="30" font-weight="700" fill="#F2F6F1">Three-Tier Web Application</text><text x="56" y="128" font-size="13" fill="#B9C6B6">Public entry through CloudFront and WAF, stateless app tier on ECS, multi-AZ data tier</text><rect x="56" y="152" width="1184" height="174" rx="6" fill="#243328" stroke="#DCE6DA" stroke-width="1.5" opacity="0.92" stroke-dasharray=""/><text x="76" y="184" font-family="Comic Sans MS, Chalkboard, cursive" font-size="15" font-weight="700" letter-spacing="1.4" fill="#F3D27A">EDGE</text><text x="1222" y="182" font-family="Comic Sans MS, Chalkboard, cursive" font-size="11" fill="#B9C6B6" text-anchor="end">public</text><rect x="362" y="390" width="572" height="174" rx="6" fill="#243328" stroke="#DCE6DA" stroke-width="1.5" opacity="0.92" stroke-dasharray=""/><text x="382" y="422" font-family="Comic Sans MS, Chalkboard, cursive" font-size="15" font-weight="700" letter-spacing="1.4" fill="#F3D27A">PRESENTATION TIER</text><text x="916" y="420" font-family="Comic Sans MS, Chalkboard, cursive" font-size="11" fill="#B9C6B6" text-anchor="end">public subnets</text><rect x="56" y="628" width="1184" height="174" rx="6" fill="#243328" stroke="#DCE6DA" stroke-width="1.5" opacity="0.92" stroke-dasharray=""/><text x="76" y="660" font-family="Comic Sans MS, Chalkboard, cursive" font-size="15" font-weight="700" letter-spacing="1.4" fill="#F3D27A">APPLICATION TIER</text><text x="1222" y="658" font-family="Comic Sans MS, Chalkboard, cursive" font-size="11" fill="#B9C6B6" text-anchor="end">private subnets</text><rect x="209" y="866" width="878" height="174" rx="6" fill="#243328" stroke="#DCE6DA" stroke-width="1.5" opacity="0.92" stroke-dasharray=""/><text x="229" y="898" font-family="Comic Sans MS, Chalkboard, cursive" font-size="15" font-weight="700" letter-spacing="1.4" fill="#F3D27A">DATA TIER</text><text x="1069" y="896" font-family="Comic Sans MS, Chalkboard, cursive" font-size="11" fill="#B9C6B6" text-anchor="end">isolated subnets</text><path d="M294 252 H390" fill="none" stroke="#E8EFE6" stroke-width="2" marker-end="url(#arrow)"></path><text x="342" y="244" font-size="10" fill="#B9C6B6" text-anchor="middle">resolve</text><path d="M600 252 H696" fill="none" stroke="#E8EFE6" stroke-width="2" marker-end="url(#arrow)"></path><path d="M906 252 H1002" fill="none" stroke="#E8EFE6" stroke-width="2" marker-end="url(#arrow)"></path><text x="954" y="244" font-size="10" fill="#B9C6B6" text-anchor="middle">inspect</text><path d="M1107 298 V358 H495 V444" fill="none" stroke="#E8EFE6" stroke-width="2" marker-end="url(#arrow)"></path><rect x="760" y="345" width="82" height="18" rx="4" fill="#1E2B22" opacity="0.88"/><text x="801" y="358" font-size="11" fill="#B9C6B6" text-anchor="middle">HTTPS 443</text><path d="M801 298 V371 H801 V444" fill="none" stroke="#E8EFE6" stroke-width="2" stroke-dasharray="7 5" marker-end="url(#arrow)"></path><rect x="755" y="358" width="92" height="18" rx="4" fill="#1E2B22" opacity="0.88"/><text x="801" y="371" font-size="11" fill="#B9C6B6" text-anchor="middle">cache miss</text><path d="M495 536 V596 H189 V682" fill="none" stroke="#E8EFE6" stroke-width="2" marker-end="url(#arrow)"></path><path d="M294 728 H390" fill="none" stroke="#E8EFE6" stroke-width="2" marker-end="url(#arrow)"></path><text x="342" y="720" font-size="10" fill="#B9C6B6" text-anchor="middle">invoke</text><path d="M600 728 H696" fill="none" stroke="#E8EFE6" stroke-width="2" stroke-dasharray="10 6" marker-end="url(#arrow)"><animate attributeName="stroke-dashoffset" from="32" to="0" dur="1.1s" repeatCount="indefinite"/></path><text x="648" y="720" font-size="10" fill="#B9C6B6" text-anchor="middle">publish</text><path d="M906 728 H1002" fill="none" stroke="#E8EFE6" stroke-width="2" stroke-dasharray="10 6" marker-end="url(#arrow)"><animate attributeName="stroke-dashoffset" from="32" to="0" dur="1.1s" repeatCount="indefinite"/></path><text x="954" y="720" font-size="10" fill="#B9C6B6" text-anchor="middle">consume</text><path d="M495 774 V834 H342 V920" fill="none" stroke="#E8EFE6" stroke-width="2" marker-end="url(#arrow)"></path><rect x="372" y="821" width="92" height="18" rx="4" fill="#1E2B22" opacity="0.88"/><text x="418" y="834" font-size="11" fill="#B9C6B6" text-anchor="middle">read/write</text><path d="M495 774 V847 H648 V920" fill="none" stroke="#E8EFE6" stroke-width="2" marker-end="url(#arrow)"></path><rect x="539" y="834" width="64" height="18" rx="4" fill="#1E2B22" opacity="0.88"/><text x="572" y="847" font-size="11" fill="#B9C6B6" text-anchor="middle">session</text><path d="M1107 774 V860 H954 V920" fill="none" stroke="#E8EFE6" stroke-width="2" stroke-dasharray="7 5" marker-end="url(#arrow)"></path><rect x="998" y="847" width="64" height="18" rx="4" fill="#1E2B22" opacity="0.88"/><text x="1030" y="860" font-size="11" fill="#B9C6B6" text-anchor="middle">archive</text><g><rect x="84" y="206" width="210" height="92" rx="6" fill="#1E2B22" stroke="#E8EFE6" stroke-width="2" filter="url(#sketch)"/><g transform="translate(102,238) scale(1.15)"><circle cx="12" cy="8" r="4" fill="none" stroke="#F3D27A" stroke-width="1.8" stroke-linejoin="round" stroke-linecap="round"/><path d="M4 21c0-4.4 3.6-7 8-7s8 2.6 8 7" fill="none" stroke="#F3D27A" stroke-width="1.8" stroke-linejoin="round" stroke-linecap="round"/></g><text x="136" y="250" font-family="Comic Sans MS, Chalkboard, cursive" font-size="14" font-weight="600" fill="#F2F6F1">End Users</text><text x="136" y="268" font-family="Comic Sans MS, Chalkboard, cursive" font-size="11" fill="#B9C6B6">web and mobile</text></g><g><rect x="390" y="206" width="210" height="92" rx="6" fill="#1E2B22" stroke="#E8EFE6" stroke-width="2" filter="url(#sketch)"/><g transform="translate(408,238) scale(1.15)"><circle cx="12" cy="12" r="9" fill="none" stroke="#F3D27A" stroke-width="1.8" stroke-linejoin="round" stroke-linecap="round"/><path d="M3 12h18M12 3c3 3 3 15 0 18M12 3c-3 3-3 15 0 18" fill="none" stroke="#F3D27A" stroke-width="1.3" stroke-linejoin="round" stroke-linecap="round"/></g><text x="442" y="250" font-family="Comic Sans MS, Chalkboard, cursive" font-size="14" font-weight="600" fill="#F2F6F1">Amazon Route 53</text><text x="442" y="268" font-family="Comic Sans MS, Chalkboard, cursive" font-size="11" fill="#B9C6B6">hosted zone</text></g><g><rect x="696" y="206" width="210" height="92" rx="6" fill="#1E2B22" stroke="#E8EFE6" stroke-width="2" filter="url(#sketch)"/><g transform="translate(714,238) scale(1.15)"><circle cx="12" cy="12" r="9" fill="none" stroke="#F3D27A" stroke-width="1.8" stroke-linejoin="round" stroke-linecap="round"/><path d="M3 12h18M12 3c3 3 3 15 0 18M12 3c-3 3-3 15 0 18" fill="none" stroke="#F3D27A" stroke-width="1.3" stroke-linejoin="round" stroke-linecap="round"/></g><text x="748" y="250" font-family="Comic Sans MS, Chalkboard, cursive" font-size="14" font-weight="600" fill="#F2F6F1">Amazon CloudFront</text><text x="748" y="268" font-family="Comic Sans MS, Chalkboard, cursive" font-size="11" fill="#B9C6B6">global edge cache</text></g><g><rect x="1002" y="206" width="210" height="92" rx="6" fill="#1E2B22" stroke="#E8EFE6" stroke-width="2" filter="url(#sketch)"/><g transform="translate(1020,238) scale(1.15)"><path d="M12 2l8 3v6c0 5-3.4 9.3-8 11-4.6-1.7-8-6-8-11V5z" fill="none" stroke="#F3D27A" stroke-width="1.8" stroke-linejoin="round" stroke-linecap="round"/><path d="M9 12l2 2 4-4" fill="none" stroke="#F3D27A" stroke-width="1.6" stroke-linejoin="round" stroke-linecap="round"/></g><text x="1054" y="250" font-family="Comic Sans MS, Chalkboard, cursive" font-size="14" font-weight="600" fill="#F2F6F1">AWS WAF</text><text x="1054" y="268" font-family="Comic Sans MS, Chalkboard, cursive" font-size="11" fill="#B9C6B6">managed rule groups</text></g><g><rect x="390" y="444" width="210" height="92" rx="6" fill="#1E2B22" stroke="#E8EFE6" stroke-width="2" filter="url(#sketch)"/><g transform="translate(408,476) scale(1.15)"><circle cx="12" cy="4.5" r="2.5" fill="none" stroke="#F3D27A" stroke-width="1.8" stroke-linejoin="round" stroke-linecap="round"/><circle cx="4.5" cy="19" r="2.5" fill="none" stroke="#F3D27A" stroke-width="1.8" stroke-linejoin="round" stroke-linecap="round"/><circle cx="19.5" cy="19" r="2.5" fill="none" stroke="#F3D27A" stroke-width="1.8" stroke-linejoin="round" stroke-linecap="round"/><path d="M12 7v4M12 11H5v5M12 11h7v5" fill="none" stroke="#F3D27A" stroke-width="1.4" stroke-linejoin="round" stroke-linecap="round"/></g><text x="442" y="488" font-family="Comic Sans MS, Chalkboard, cursive" font-size="12.5" font-weight="600" fill="#F2F6F1">Application Load Balancer</text><text x="442" y="506" font-family="Comic Sans MS, Chalkboard, cursive" font-size="11" fill="#B9C6B6">TLS termination</text><rect x="530" y="454" width="62" height="18" rx="9" fill="#F3D27A" opacity="0.85"/><text x="588" y="467" font-family="Comic Sans MS, Chalkboard, cursive" font-size="10" fill="#1E2B22" text-anchor="end">AZ-a/b</text></g><g><rect x="696" y="444" width="210" height="92" rx="6" fill="#1E2B22" stroke="#E8EFE6" stroke-width="2" filter="url(#sketch)"/><g transform="translate(714,476) scale(1.15)"><path d="M3 7l3-4h12l3 4v12a2 2 0 0 1-2 2H5a2 2 0 0 1-2-2z" fill="none" stroke="#F3D27A" stroke-width="1.8" stroke-linejoin="round" stroke-linecap="round"/><path d="M3 7h18M9 12h6" fill="none" stroke="#F3D27A" stroke-width="1.4" stroke-linejoin="round" stroke-linecap="round"/></g><text x="748" y="488" font-family="Comic Sans MS, Chalkboard, cursive" font-size="14" font-weight="600" fill="#F2F6F1">Static Assets</text><text x="748" y="506" font-family="Comic Sans MS, Chalkboard, cursive" font-size="11" fill="#B9C6B6">S3 origin</text></g><g><rect x="84" y="682" width="210" height="92" rx="6" fill="#1E2B22" stroke="#E8EFE6" stroke-width="2" filter="url(#sketch)"/><g transform="translate(102,714) scale(1.15)"><path d="M9 6L4 12l5 6M15 6l5 6-5 6" fill="none" stroke="#F3D27A" stroke-width="1.8" stroke-linejoin="round" stroke-linecap="round"/><path d="M13 4l-2 16" fill="none" stroke="#F3D27A" stroke-width="1.4" stroke-linejoin="round" stroke-linecap="round"/></g><text x="136" y="726" font-family="Comic Sans MS, Chalkboard, cursive" font-size="14" font-weight="600" fill="#F2F6F1">API Gateway</text><text x="136" y="744" font-family="Comic Sans MS, Chalkboard, cursive" font-size="11" fill="#B9C6B6">REST, throttled</text></g><g><rect x="390" y="682" width="210" height="92" rx="6" fill="#1E2B22" stroke="#E8EFE6" stroke-width="2" filter="url(#sketch)"/><g transform="translate(408,714) scale(1.15)"><rect x="3" y="9" width="6" height="6" fill="none" stroke="#F3D27A" stroke-width="1.5" stroke-linejoin="round" stroke-linecap="round"/><rect x="10" y="9" width="6" height="6" fill="none" stroke="#F3D27A" stroke-width="1.5" stroke-linejoin="round" stroke-linecap="round"/><rect x="6.5" y="3" width="6" height="5" fill="none" stroke="#F3D27A" stroke-width="1.5" stroke-linejoin="round" stroke-linecap="round"/><path d="M17 12h4" fill="none" stroke="#F3D27A" stroke-width="1.5" stroke-linejoin="round" stroke-linecap="round"/></g><text x="442" y="726" font-family="Comic Sans MS, Chalkboard, cursive" font-size="14" font-weight="600" fill="#F2F6F1">ECS Fargate Services</text><text x="442" y="744" font-family="Comic Sans MS, Chalkboard, cursive" font-size="11" fill="#B9C6B6">autoscaled 4-24 tasks</text></g><g><rect x="696" y="682" width="210" height="92" rx="6" fill="#1E2B22" stroke="#E8EFE6" stroke-width="2" filter="url(#sketch)"/><g transform="translate(714,714) scale(1.15)"><rect x="2" y="8" width="5" height="8" rx="1" fill="none" stroke="#F3D27A" stroke-width="1.8" stroke-linejoin="round" stroke-linecap="round"/><rect x="9.5" y="8" width="5" height="8" rx="1" fill="none" stroke="#F3D27A" stroke-width="1.8" stroke-linejoin="round" stroke-linecap="round"/><rect x="17" y="8" width="5" height="8" rx="1" fill="none" stroke="#F3D27A" stroke-width="1.8" stroke-linejoin="round" stroke-linecap="round"/></g><text x="748" y="726" font-family="Comic Sans MS, Chalkboard, cursive" font-size="14" font-weight="600" fill="#F2F6F1">Amazon SQS</text><text x="748" y="744" font-family="Comic Sans MS, Chalkboard, cursive" font-size="11" fill="#B9C6B6">decoupling buffer</text></g><g><rect x="1002" y="682" width="210" height="92" rx="6" fill="#1E2B22" stroke="#E8EFE6" stroke-width="2" filter="url(#sketch)"/><g transform="translate(1020,714) scale(1.15)"><path d="M13 2L5 13h6l-2 9 10-12h-6z" fill="none" stroke="#F3D27A" stroke-width="1.8" stroke-linejoin="round" stroke-linecap="round"/></g><text x="1054" y="726" font-family="Comic Sans MS, Chalkboard, cursive" font-size="14" font-weight="600" fill="#F2F6F1">Lambda Workers</text><text x="1054" y="744" font-family="Comic Sans MS, Chalkboard, cursive" font-size="11" fill="#B9C6B6">async processing</text></g><g><rect x="237" y="920" width="210" height="92" rx="6" fill="#1E2B22" stroke="#E8EFE6" stroke-width="2" filter="url(#sketch)"/><g transform="translate(255,952) scale(1.15)"><ellipse cx="12" cy="5.5" rx="8" ry="3" fill="none" stroke="#F3D27A" stroke-width="1.8" stroke-linejoin="round" stroke-linecap="round"/><path d="M4 5.5v13c0 1.7 3.6 3 8 3s8-1.3 8-3v-13" fill="none" stroke="#F3D27A" stroke-width="1.8" stroke-linejoin="round" stroke-linecap="round"/><path d="M4 12c0 1.7 3.6 3 8 3s8-1.3 8-3" fill="none" stroke="#F3D27A" stroke-width="1.8" stroke-linejoin="round" stroke-linecap="round"/></g><text x="289" y="964" font-family="Comic Sans MS, Chalkboard, cursive" font-size="14" font-weight="600" fill="#F2F6F1">Aurora PostgreSQL</text><text x="289" y="982" font-family="Comic Sans MS, Chalkboard, cursive" font-size="11" fill="#B9C6B6">primary + standby</text><rect x="359" y="930" width="80" height="18" rx="9" fill="#F3D27A" opacity="0.85"/><text x="435" y="943" font-family="Comic Sans MS, Chalkboard, cursive" font-size="10" fill="#1E2B22" text-anchor="end">Multi-AZ</text></g><g><rect x="543" y="920" width="210" height="92" rx="6" fill="#1E2B22" stroke="#E8EFE6" stroke-width="2" filter="url(#sketch)"/><g transform="translate(561,952) scale(1.15)"><rect x="4" y="5" width="16" height="14" rx="2" fill="none" stroke="#F3D27A" stroke-width="1.8" stroke-linejoin="round" stroke-linecap="round"/><path d="M8 9h8M8 12h8M8 15h5" fill="none" stroke="#F3D27A" stroke-width="1.4" stroke-linejoin="round" stroke-linecap="round"/></g><text x="595" y="964" font-family="Comic Sans MS, Chalkboard, cursive" font-size="14" font-weight="600" fill="#F2F6F1">ElastiCache Redis</text><text x="595" y="982" font-family="Comic Sans MS, Chalkboard, cursive" font-size="11" fill="#B9C6B6">session and hot keys</text></g><g><rect x="849" y="920" width="210" height="92" rx="6" fill="#1E2B22" stroke="#E8EFE6" stroke-width="2" filter="url(#sketch)"/><g transform="translate(867,952) scale(1.15)"><path d="M3 7l3-4h12l3 4v12a2 2 0 0 1-2 2H5a2 2 0 0 1-2-2z" fill="none" stroke="#F3D27A" stroke-width="1.8" stroke-linejoin="round" stroke-linecap="round"/><path d="M3 7h18M9 12h6" fill="none" stroke="#F3D27A" stroke-width="1.4" stroke-linejoin="round" stroke-linecap="round"/></g><text x="901" y="964" font-family="Comic Sans MS, Chalkboard, cursive" font-size="14" font-weight="600" fill="#F2F6F1">Amazon S3</text><text x="901" y="982" font-family="Comic Sans MS, Chalkboard, cursive" font-size="11" fill="#B9C6B6">documents and backups</text></g><text x="56" y="1074" font-size="11" font-weight="700" fill="#B9C6B6" letter-spacing="1.2">LEGEND</text><rect x="56" y="1081" width="14" height="14" rx="3" fill="#FF9900"/><text x="78" y="1092" font-size="12" fill="#F2F6F1">Compute</text><rect x="246" y="1081" width="14" height="14" rx="3" fill="#3B48CC"/><text x="268" y="1092" font-size="12" fill="#F2F6F1">Data</text><rect x="436" y="1081" width="14" height="14" rx="3" fill="#8C4FFF"/><text x="458" y="1092" font-size="12" fill="#F2F6F1">Networking</text><rect x="626" y="1081" width="14" height="14" rx="3" fill="#DD344C"/><text x="648" y="1092" font-size="12" fill="#F2F6F1">Security</text></svg>